<mxfile host="65bd71144e">
    <diagram id="Q8ZCVBfkGdzVq4fk389N" name="Page-1">
        <mxGraphModel dx="1810" dy="876" grid="1" gridSize="10" guides="1" tooltips="1" connect="1" arrows="1" fold="1" page="1" pageScale="1" pageWidth="827" pageHeight="1169" math="1" shadow="0">
            <root>
                <mxCell id="0"/>
                <mxCell id="1" parent="0"/>
                <mxCell id="18" value="admin: &lt;br&gt;CustomerManagement" style="shape=umlLifeline;perimeter=lifelinePerimeter;whiteSpace=wrap;html=1;container=1;collapsible=0;recursiveResize=0;outlineConnect=0;fontFamily=Alegreya;" parent="1" vertex="1">
                    <mxGeometry x="-600" y="60" width="140" height="304" as="geometry"/>
                </mxCell>
                <mxCell id="37" value="" style="html=1;points=[];perimeter=orthogonalPerimeter;fontFamily=Alegreya;" parent="18" vertex="1">
                    <mxGeometry x="65" y="79" width="10" height="180" as="geometry"/>
                </mxCell>
                <mxCell id="141" value="" style="html=1;points=[];perimeter=orthogonalPerimeter;" vertex="1" parent="18">
                    <mxGeometry x="75" y="114" width="10" height="40" as="geometry"/>
                </mxCell>
                <mxCell id="142" value="generateCustomerNo()" style="edgeStyle=orthogonalEdgeStyle;html=1;align=left;spacingLeft=2;endArrow=block;rounded=0;entryX=1;entryY=0;fontFamily=Alegreya;fontSource=https%3A%2F%2Ffonts.googleapis.com%2Fcss%3Ffamily%3DAlegreya;dashed=1;" edge="1" target="141" parent="18" source="37">
                    <mxGeometry relative="1" as="geometry">
                        <mxPoint x="80" y="94" as="sourcePoint"/>
                        <Array as="points">
                            <mxPoint x="110" y="94"/>
                            <mxPoint x="110" y="114"/>
                        </Array>
                    </mxGeometry>
                </mxCell>
                <mxCell id="143" value="customerNo" style="edgeStyle=orthogonalEdgeStyle;html=1;align=left;spacingLeft=2;endArrow=block;rounded=0;fontFamily=Alegreya;fontSource=https%3A%2F%2Ffonts.googleapis.com%2Fcss%3Ffamily%3DAlegreya;dashed=1;" edge="1" parent="18" target="37">
                    <mxGeometry x="-0.2333" y="20" relative="1" as="geometry">
                        <mxPoint x="85" y="142" as="sourcePoint"/>
                        <Array as="points">
                            <mxPoint x="100" y="142"/>
                            <mxPoint x="100" y="162"/>
                        </Array>
                        <mxPoint x="90" y="162" as="targetPoint"/>
                        <mxPoint as="offset"/>
                    </mxGeometry>
                </mxCell>
                <mxCell id="19" value="customer1: Customer" style="shape=umlLifeline;perimeter=lifelinePerimeter;whiteSpace=wrap;html=1;container=1;collapsible=0;recursiveResize=0;outlineConnect=0;fontFamily=Alegreya;" parent="1" vertex="1">
                    <mxGeometry x="-291" y="244" width="100" height="129" as="geometry"/>
                </mxCell>
                <mxCell id="59" value="" style="html=1;points=[];perimeter=orthogonalPerimeter;fontFamily=Alegreya;" parent="19" vertex="1">
                    <mxGeometry x="45" y="52" width="10" height="25" as="geometry"/>
                </mxCell>
                <mxCell id="24" value="" style="shape=umlLifeline;participant=umlActor;perimeter=lifelinePerimeter;whiteSpace=wrap;html=1;container=1;collapsible=0;recursiveResize=0;verticalAlign=top;spacingTop=36;outlineConnect=0;" parent="1" vertex="1">
                    <mxGeometry x="-740" y="64" width="20" height="300" as="geometry"/>
                </mxCell>
                <mxCell id="43" value="" style="html=1;points=[];perimeter=orthogonalPerimeter;" parent="24" vertex="1">
                    <mxGeometry x="5" y="60" width="10" height="210" as="geometry"/>
                </mxCell>
                <mxCell id="38" value="register(name, address, password)" style="html=1;verticalAlign=bottom;endArrow=block;entryX=0;entryY=0;fontFamily=Alegreya;" parent="1" source="43" target="37" edge="1">
                    <mxGeometry x="-0.0786" y="1" relative="1" as="geometry">
                        <mxPoint x="-715" y="234" as="sourcePoint"/>
                        <mxPoint as="offset"/>
                    </mxGeometry>
                </mxCell>
                <mxCell id="128" value="new(customerNo, password, name, address)" style="html=1;verticalAlign=bottom;endArrow=block;fontFamily=Alegreya;" edge="1" parent="1">
                    <mxGeometry x="0.0769" y="3" relative="1" as="geometry">
                        <mxPoint x="-525" y="257" as="sourcePoint"/>
                        <mxPoint x="-300" y="257" as="targetPoint"/>
                        <Array as="points">
                            <mxPoint x="-490" y="257"/>
                        </Array>
                        <mxPoint as="offset"/>
                    </mxGeometry>
                </mxCell>
                <mxCell id="144" value="customer1" style="html=1;verticalAlign=bottom;endArrow=open;dashed=1;endSize=8;fontFamily=Alegreya;entryX=1;entryY=0.976;entryDx=0;entryDy=0;entryPerimeter=0;exitX=-0.067;exitY=0.747;exitDx=0;exitDy=0;exitPerimeter=0;" edge="1" parent="1" source="59" target="37">
                    <mxGeometry relative="1" as="geometry">
                        <mxPoint x="-520" y="320" as="targetPoint"/>
                        <mxPoint x="-246" y="319" as="sourcePoint"/>
                    </mxGeometry>
                </mxCell>
            </root>
        </mxGraphModel>
    </diagram>
</mxfile>
